HIERARCHY
ROOT Hips
{
 OFFSET 0.000000 0.000000 0.000000
 CHANNELS 6 Xposition Yposition Zposition Yrotation Xrotation Zrotation
 JOINT Chest
 {
  OFFSET 0.000000 9.585900 0.002600
  CHANNELS 3 Yrotation Xrotation Zrotation
  JOINT Chest2
  {
   OFFSET 0.000000 9.601200 -0.005300
   CHANNELS 3 Yrotation Xrotation Zrotation
   JOINT Chest3
   {
    OFFSET 0.000000 9.561800 0.000000
    CHANNELS 3 Yrotation Xrotation Zrotation
    JOINT Chest4
    {
     OFFSET 0.000000 9.552100 0.000000
     CHANNELS 3 Yrotation Xrotation Zrotation
     JOINT Neck
     {
      OFFSET 0.000000 14.453000 0.000000
      CHANNELS 3 Yrotation Xrotation Zrotation
      JOINT Head
      {
       OFFSET 0.000000 8.936500 -0.011300
       CHANNELS 3 Yrotation Xrotation Zrotation
       End Site
       {
        OFFSET 0.000000 17.073600 -0.006000
       }
      }
     }
     JOINT RightCollar
     {
      OFFSET -2.921100 9.558500 0.000000
      CHANNELS 3 Yrotation Xrotation Zrotation
      JOINT RightShoulder
      {
       OFFSET -13.519700 0.000000 0.000000
       CHANNELS 3 Yrotation Xrotation Zrotation
       JOINT RightElbow
       {
        OFFSET 0.000000 -29.696600 0.000000
        CHANNELS 3 Yrotation Xrotation Zrotation
        JOINT RightWrist
        {
         OFFSET 0.000000 -24.004700 0.000000
         CHANNELS 3 Yrotation Xrotation Zrotation
         End Site
         {
          OFFSET 0.000000 -17.728500 0.000000
         }
        }
       }
      }
     }
     JOINT LeftCollar
     {
      OFFSET 2.921100 9.558500 0.000000
      CHANNELS 3 Yrotation Xrotation Zrotation
      JOINT LeftShoulder
      {
       OFFSET 13.519700 0.000000 0.000000
       CHANNELS 3 Yrotation Xrotation Zrotation
       JOINT LeftElbow
       {
        OFFSET 0.000000 -29.696600 0.000000
        CHANNELS 3 Yrotation Xrotation Zrotation
        JOINT LeftWrist
        {
         OFFSET 0.000000 -24.004700 0.000000
         CHANNELS 3 Yrotation Xrotation Zrotation
         End Site
         {
          OFFSET 0.000000 -17.728500 0.000000
         }
        }
       }
      }
     }
    }
   }
  }
 }
 JOINT RightHip
 {
  OFFSET -7.771700 -0.012900 -0.001300
  CHANNELS 3 Yrotation Xrotation Zrotation
  JOINT RightKnee
  {
   OFFSET 0.000000 -40.869800 0.001200
   CHANNELS 3 Yrotation Xrotation Zrotation
   JOINT RightAnkle
   {
    OFFSET 0.000000 -39.717900 0.002100
    CHANNELS 3 Yrotation Xrotation Zrotation
    JOINT RightToe
    {
     OFFSET 0.000000 -4.965400 11.033500
     CHANNELS 3 Yrotation Xrotation Zrotation
     End Site
     {
      OFFSET 0.000000 -1.423100 5.872300
     }
    }
   }
  }
 }
 JOINT LeftHip
 {
  OFFSET 7.771700 -0.012900 -0.001300
  CHANNELS 3 Yrotation Xrotation Zrotation
  JOINT LeftKnee
  {
   OFFSET 0.000000 -40.869800 0.001200
   CHANNELS 3 Yrotation Xrotation Zrotation
   JOINT LeftAnkle
   {
    OFFSET 0.000000 -39.717900 0.002100
    CHANNELS 3 Yrotation Xrotation Zrotation
    JOINT LeftToe
    {
     OFFSET 0.000000 -4.965400 11.033500
     CHANNELS 3 Yrotation Xrotation Zrotation
     End Site
     {
      OFFSET 0.000000 -1.423100 5.872300
     }
    }
   }
  }
 }
}
MOTION
Frames: 12
Frame Time: 0.008333
0.000000 85.388000 0.000000 0.000000 -5.767877 0.000000 0.000000 11.653817 0.000000 0.000000 -5.885947 0.000000 0.000000 -0.000000 0.000000 0.000000 -0.000000 0.000000 0.000000 12.528835 0.000000 0.000000 0.711642 0.000000 0.000000 -0.000000 0.000000 0.000000 0.000000 -90.000000 0.000000 -2.309062 0.000000 0.000000 2.309062 0.000000 0.000000 -0.000000 0.000000 0.000000 -0.000000 90.000000 0.000000 -2.309062 0.000000 0.000000 2.309062 0.000000 0.000000 8.520406 0.000000 0.000000 1.905762 0.000000 -0.000000 -4.658285 0.000000 0.000000 -0.000000 0.000000 0.000000 8.520406 0.000000 0.000000 1.905762 0.000000 -0.000000 -4.658285 0.000000 0.000000 -0.000000 0.000000
-66.325011 63.271540 11.971844 165.508746 -52.418971 -3.858606 8.938576 26.835925 4.894053 1.479705 4.890067 0.380649 2.350457 7.693819 0.658341 7.158611 21.738953 2.813328 5.170720 16.919986 7.973157 6.826485 -4.472358 12.970230 10.086085 3.267260 8.419471 17.824397 -35.419543 -20.150391 -86.414828 -37.669793 143.144085 5.830918 -0.168893 15.590828 -10.565262 2.179669 -0.725080 -9.739915 -17.743810 20.725610 -29.787502 -80.583575 2.950135 -3.840621 -1.171138 10.635709 -5.325751 -7.689330 9.987302 -27.897565 73.654786 -25.378056 1.397797 -13.116304 -2.369685 -0.315732 0.801870 -0.141777 -3.430146 -14.670036 0.561113 13.086590 63.165930 6.876695 -3.303799 -8.710721 0.625146 -0.286904 -0.687803 -0.115862
-66.328263 63.271345 11.969098 165.495251 -52.393103 -3.815132 8.855827 26.923442 4.876817 1.468324 4.914310 0.386105 2.332190 7.729948 0.666582 7.093544 21.793110 2.826223 5.305701 16.907136 7.997987 7.066448 -4.503991 12.969548 10.147688 3.237047 8.295480 17.973489 -35.355448 -20.316550 -86.514960 -37.729507 143.160693 5.798297 -0.309734 15.384338 -10.505997 2.104272 -0.796870 -9.717893 -17.763018 20.689869 -30.689494 -80.654794 3.923053 -3.842944 -1.158435 10.613662 -5.324580 -7.717007 9.951970 -27.877294 73.664030 -25.355033 1.359506 -13.112752 -2.389381 -0.277667 0.785616 -0.124626 -3.412958 -14.693003 0.539847 13.050654 63.165850 6.829765 -3.333153 -8.729816 0.625518 -0.264001 -0.669353 -0.105469
-66.322665 63.272300 11.968140 165.483480 -52.367938 -3.826726 8.791446 26.995874 4.911210 1.455666 4.934059 0.390853 2.311962 7.759451 0.673726 7.026045 21.839811 2.836275 5.441412 16.907057 8.023538 7.308199 -4.511840 12.969953 10.215917 3.231023 8.178737 18.122862 -35.290111 -20.474207 -86.637356 -37.801805 143.176888 5.783874 -0.435493 15.218090 -10.436776 2.052833 -0.871956 -9.692200 -17.771643 20.654556 -31.623694 -80.726433 4.929538 -3.845142 -1.143437 10.592946 -5.333859 -7.740612 9.962434 -27.828409 73.680567 -25.303888 1.401116 -13.130315 -2.391510 -0.319173 0.792672 -0.144146 -3.406760 -14.711140 0.568451 13.025858 63.162389 6.802661 -3.304475 -8.719839 0.632873 -0.302090 -0.679681 -0.115170
-66.320401 63.274317 11.964831 165.467005 -52.347659 -3.811895 8.721577 27.070410 4.916838 1.444106 4.950740 0.394999 2.293543 7.784251 0.679885 6.965642 21.879540 2.844735 5.572351 16.915987 8.054047 7.540001 -4.502581 12.981182 10.269559 3.236226 8.077993 18.259833 -35.225718 -20.619683 -86.763326 -37.881892 143.192034 5.785757 -0.544848 15.084182 -10.377721 2.017882 -0.938253 -9.667910 -17.770896 20.619109 -32.582302 -80.793477 5.963061 -3.845996 -1.128438 10.575148 -5.327873 -7.760160 9.958545 -27.812969 73.686111 -25.286454 1.408119 -13.131218 -2.395148 -0.324922 0.782841 -0.146624 -3.385686 -14.724056 0.570612 12.998940 63.157565 6.784622 -3.314486 -8.722959 0.619396 -0.297173 -0.677890 -0.100840
-66.318078 63.274588 11.962707 165.447480 -52.310459 -3.797006 8.659683 27.122389 4.922580 1.433452 4.964785 0.398575 2.276647 7.805155 0.685158 6.910929 21.913477 2.851564 5.696843 16.932330 8.089531 7.758713 -4.479147 13.003761 10.308624 3.248722 7.993113 18.380701 -35.161745 -20.754739 -86.884717 -37.962560 143.208770 5.797646 -0.634733 14.973349 -10.332916 1.998307 -0.995098 -9.642313 -17.767341 20.584661 -33.538233 -80.857881 6.995053 -3.848155 -1.109074 10.556883 -5.319827 -7.798146 9.960186 -27.774122 73.698835 -25.240969 1.392718 -13.140934 -2.404875 -0.318850 0.784110 -0.144463 -3.364636 -14.756167 0.575683 12.962687 63.155577 6.754862 -3.304913 -8.727336 0.618311 -0.298846 -0.675080 -0.100885
-66.320355 63.273874 11.959563 165.427563 -52.264138 -3.753438 8.585413 27.163574 4.895573 1.422611 4.976063 0.401689 2.259482 7.822161 0.689672 6.857071 21.942516 2.856785 5.816479 16.956795 8.127476 7.968033 -4.440340 13.032631 10.345080 3.275168 7.918193 18.485473 -35.099394 -20.881436 -86.999643 -38.045337 143.227338 5.814445 -0.711372 14.881212 -10.291579 1.996325 -1.050638 -9.615815 -17.763370 20.554760 -34.469359 -80.921335 8.004115 -3.851122 -1.086368 10.535243 -5.309413 -7.849104 9.928465 -27.707220 73.719545 -25.157943 1.334034 -13.136908 -2.434533 -0.266103 0.761805 -0.122421 -3.344219 -14.801813 0.552155 12.956520 63.155265 6.749180 -3.336813 -8.739936 0.609831 -0.250808 -0.664550 -0.089381
-66.319676 63.273311 11.957107 165.413402 -52.215467 -3.731790 8.513013 27.193588 4.883880 1.411432 4.984821 0.404504 2.241829 7.835412 0.693611 6.803620 21.967015 2.861067 5.931597 16.989931 8.166388 8.169138 -4.385221 13.065088 10.386356 3.318251 7.850431 18.570742 -35.040085 -21.000173 -87.104934 -38.134012 143.241815 5.833560 -0.783039 14.807157 -10.245452 2.007956 -1.109331 -9.589549 -17.754380 20.529231 -35.376563 -80.982439 8.988715 -3.850646 -1.065004 10.512324 -5.304683 -7.901910 9.910287 -27.669121 73.737423 -25.107819 1.338849 -13.142392 -2.446646 -0.271623 0.758608 -0.124071 -3.314617 -14.844069 0.546041 12.935149 63.146016 6.742063 -3.363766 -8.741059 0.608563 -0.271483 -0.656575 -0.099632
-66.316484 63.274544 11.953763 165.385659 -52.178835 -3.711157 8.453822 27.227820 4.882724 1.400188 4.991282 0.406969 2.268733 7.808318 0.671232 6.721446 22.019467 2.903243 6.041256 17.030275 8.206224 8.360401 -4.316448 13.101155 10.429981 3.374096 7.789973 18.637035 -34.982381 -21.112823 -87.200503 -38.223480 143.253431 5.853046 -0.852002 14.749848 -10.193351 2.026593 -1.168379 -9.563110 -17.738960 20.504062 -36.245310 -81.038240 9.928480 -3.848354 -1.045308 10.495327 -5.292849 -7.939364 9.909727 -27.647214 73.748219 -25.075185 1.332768 -13.148232 -2.460914 -0.262765 0.753144 -0.120769 -3.256322 -14.869322 0.546803 12.882764 63.136096 6.724816 -3.376114 -8.753422 0.604414 -0.272312 -0.643647 -0.096237
-66.312825 63.271035 11.954102 165.354430 -52.105206 -3.694119 8.393813 27.220025 4.880463 1.388757 4.995615 0.409016 2.228641 7.834371 0.687437 6.684216 22.018873 2.885489 6.145582 17.076360 8.246283 8.542137 -4.236708 13.139476 10.472362 3.440869 7.735041 18.688172 -34.925778 -21.220354 -87.286252 -38.309121 143.266629 5.874268 -0.918438 14.707272 -10.137077 2.050271 -1.224524 -9.536477 -17.720393 20.475828 -37.047980 -81.085854 10.796869 -3.847256 -1.027021 10.488140 -5.284675 -8.015387 9.922526 -27.642089 73.758175 -25.061791 1.329693 -13.168356 -2.475509 -0.254046 0.763271 -0.117090 -3.224366 -14.942796 0.560892 12.877902 63.137873 6.735978 -3.399193 -8.759056 0.599410 -0.265797 -0.640010 -0.092409
-66.308325 63.270652 11.951654 165.329154 -52.055448 -3.680411 8.332657 27.232384 4.880063 1.376943 4.998048 0.410906 2.187556 7.855756 0.702589 6.647397 22.016982 2.868034 6.244677 17.127568 8.285746 8.714521 -4.147114 13.178750 10.514828 3.517078 7.685694 18.726782 -34.867802 -21.326676 -87.360840 -38.389460 143.277902 5.903333 -0.982290 14.678774 -10.079916 2.080842 -1.277813 -9.493553 -17.769914 20.441219 -37.592831 -81.080874 11.363815 -3.842603 -1.009116 10.489514 -5.280632 -8.064471 9.931804 -27.641132 73.764954 -25.057808 1.334982 -13.179975 -2.488128 -0.252063 0.764148 -0.113713 -3.200322 -14.991233 0.569185 12.891965 63.140567 6.756380 -3.393946 -8.759117 0.599628 -0.263637 -0.643830 -0.095496
-66.302781 63.270004 11.949190 165.305587 -52.004391 -3.672275 8.309064 27.210384 4.883547 1.334182 5.027649 0.430106 2.169111 7.857950 0.705006 6.596068 22.028032 2.869384 6.337625 17.182399 8.324279 8.875914 -4.050560 13.218643 10.559367 3.594695 7.644115 18.752051 -34.801924 -21.436004 -87.428267 -38.467316 143.287534 5.939872 -1.046933 14.663829 -10.026381 2.116550 -1.327112 -9.470713 -17.725482 20.412700 -38.295398 -81.152089 12.146997 -3.824036 -1.009853 10.497310 -5.280049 -8.114984 9.945512 -27.635743 73.770116 -25.055089 1.349988 -13.182713 -2.491363 -0.264788 0.758766 -0.118619 -3.186572 -15.043574 0.580807 12.911412 63.146476 6.786878 -3.400718 -8.754781 0.587123 -0.251420 -0.649371 -0.096344
